# xmcd CD database file
#
# Track frame offsets:
#	150
#	14975
#	27450
#	38550
#	48525
#	60975
#	80925
#	97200
#	108400
#	121425
#	133775
#	147225
#
# Disc length: 2144 seconds
#
# Revision: 0
# Processed by: cddbd v1.4PL0 Copyright (c) Steve Scherf et al.
# Submitted via: CDex 1.40Beta9
#
DISCID=b3085e0c
DTITLE=Tom Astor - Highway Helden CD2
DYEAR=1992
DGENRE=Country
TTITLE0=Sonntagmorgen
TTITLE1=Von New York City nach L.A.
TTITLE2=Ist lange her
TTITLE3=Ihr Leben, das ist ihr Laster
TTITLE4=Hier riecht's nach Freiheit
TTITLE5=Meine Antwort ist die Autobahn
TTITLE6=Wer die Oma nicht kennt hat die Zeit verpennt
TTITLE7=So ist das Leben!-So hart und so schön
TTITLE8=Ich bin einer so wie Du
TTITLE9=Ich bin wieder auf der Autobahn
TTITLE10=Six Days on the Road
TTITLE11=Gebet eines Truckers
EXTD=YEAR: 1992 ID3G: 2
EXTT0=
EXTT1=
EXTT2=
EXTT3=
EXTT4=
EXTT5=
EXTT6=
EXTT7=
EXTT8=
EXTT9=
EXTT10=
EXTT11=
PLAYORDER=
